<svg width="946.1" height="73.402" viewBox="0 0 946.1 73.402" xmlns="http://www.w3.org/2000/svg"><g id="svgGroup" stroke-linecap="round" fill-rule="evenodd" font-size="9pt" stroke="#000" stroke-width="0.25mm" fill="none" style="stroke:#000;stroke-width:0.25mm;fill:none"><path d="M 0 71.401 L 0 1.801 L 4 1.801 L 28.3 44.801 L 52.5 1.801 L 56.2 1.801 L 56.2 71.401 L 0 71.401 Z M 3.7 8.701 L 3.7 67.801 L 52.5 67.801 L 52.5 9.301 L 30 48.901 L 26.5 48.901 L 3.7 8.701 Z" id="0" vector-effect="non-scaling-stroke"/><path d="M 102.1 0.401 L 134.9 71.501 L 69.3 71.501 L 102.1 0.401 Z M 102.1 9.201 L 75.1 67.801 L 129.1 67.801 L 102.1 9.201 Z" id="1" vector-effect="non-scaling-stroke"/><path d="M 205.7 71.501 L 146.6 71.501 L 173.9 36.701 L 146.6 1.901 L 205.7 1.901 L 178.4 36.701 L 205.7 71.501 Z M 154.1 5.601 L 176.1 33.701 L 198.2 5.601 L 154.1 5.601 Z M 154.1 67.801 L 198.2 67.801 L 176.1 39.701 L 154.1 67.801 Z" id="2" vector-effect="non-scaling-stroke"/><path d="M 299.8 1.901 L 329 1.901 A 35.502 35.502 0 0 1 333.041 2.116 Q 335.073 2.35 336.763 2.836 A 15.187 15.187 0 0 1 339.5 3.901 A 18.458 18.458 0 0 1 344.587 7.659 A 16.93 16.93 0 0 1 346.75 10.501 A 17.688 17.688 0 0 1 349.298 19.577 A 21.021 21.021 0 0 1 349.3 19.901 Q 349.3 24.801 346.7 28.951 Q 344.1 33.101 339.6 35.501 Q 345 37.401 348.7 42.101 Q 352.4 46.801 352.4 52.701 Q 352.4 57.901 349.75 62.251 Q 347.1 66.601 342.7 69.101 A 17.914 17.914 0 0 1 339.119 70.563 A 21.024 21.024 0 0 1 337.8 70.901 Q 335.1 71.501 330.6 71.501 L 299.8 71.501 L 299.8 1.901 Z" id="4" vector-effect="non-scaling-stroke"/><path d="M 409.2 46.801 L 426.9 71.501 L 373.4 71.501 L 373.4 1.901 L 400.5 1.901 Q 407.11 1.901 411.873 3.69 A 20.258 20.258 0 0 1 414.7 5.001 Q 420.1 8.001 423.1 13.201 Q 426.1 18.401 426.1 24.701 Q 426.1 32.501 421.3 38.651 Q 416.5 44.801 409.2 46.801 Z M 400.6 5.601 L 379.7 5.601 L 406.9 43.601 Q 413.6 42.201 418 36.901 Q 422.4 31.601 422.4 24.701 Q 422.4 19.201 419.7 14.701 Q 417 10.201 412.1 7.801 A 18.565 18.565 0 0 0 408.079 6.376 Q 406.065 5.898 403.688 5.715 A 40.216 40.216 0 0 0 400.6 5.601 Z M 377.1 47.601 L 377.1 67.801 L 419.9 67.801 L 405.3 47.501 L 402.2 47.601 L 377.1 47.601 Z M 402.8 43.901 L 377.1 8.001 L 377.1 43.901 L 402.8 43.901 Z" id="5" vector-effect="non-scaling-stroke"/><path d="M 501.1 29.001 L 501.1 44.401 Q 501.1 52.201 497.2 58.901 Q 493.3 65.601 486.65 69.501 Q 480 73.401 472.1 73.401 Q 464.2 73.401 457.55 69.501 Q 450.9 65.601 447 58.901 Q 443.1 52.201 443.1 44.401 L 443.1 29.001 Q 443.1 21.201 447 14.501 Q 450.9 7.801 457.55 3.901 Q 464.2 0.001 472.1 0.001 Q 480 0.001 486.65 3.901 Q 493.3 7.801 497.2 14.501 Q 501.1 21.201 501.1 29.001 Z M 482.8 44.401 L 482.8 28.901 A 13.213 13.213 0 0 0 482.184 24.789 A 11.147 11.147 0 0 0 479.8 20.701 Q 476.8 17.401 472.1 17.401 A 11.348 11.348 0 0 0 468.307 18.01 A 9.719 9.719 0 0 0 464.3 20.701 A 11.454 11.454 0 0 0 461.347 27.701 A 15.086 15.086 0 0 0 461.3 28.901 L 461.3 44.401 A 12.761 12.761 0 0 0 462.14 49.09 A 11.748 11.748 0 0 0 464.3 52.601 A 9.803 9.803 0 0 0 471.47 55.986 A 13.066 13.066 0 0 0 472.1 56.001 A 10.571 10.571 0 0 0 476.133 55.254 A 9.805 9.805 0 0 0 479.8 52.601 A 11.91 11.91 0 0 0 482.797 44.7 A 15.154 15.154 0 0 0 482.8 44.401 Z" id="6" vector-effect="non-scaling-stroke"/><path d="M 556.9 45.201 L 574.8 45.201 A 44.445 44.445 0 0 1 574.801 45.54 Q 574.801 50.06 573.874 53.887 A 23.748 23.748 0 0 1 567.3 65.651 A 25.189 25.189 0 0 1 555.573 71.967 Q 551.649 72.936 547.02 72.997 A 47.414 47.414 0 0 1 546.4 73.001 Q 538.5 73.001 531.85 69.401 Q 525.2 65.801 521.3 59.201 A 28.09 28.09 0 0 1 517.6 47.795 A 35.176 35.176 0 0 1 517.4 44.001 L 517.4 29.401 A 32.94 32.94 0 0 1 518.458 20.906 A 27.744 27.744 0 0 1 521.15 14.301 Q 524.9 7.701 531.45 4.051 A 29.128 29.128 0 0 1 544.347 0.445 A 34.871 34.871 0 0 1 546.1 0.401 A 39.372 39.372 0 0 1 554.564 1.258 Q 561.995 2.893 566.95 7.651 A 23.9 23.9 0 0 1 573.522 19.209 Q 574.498 23.001 574.591 27.498 A 45.791 45.791 0 0 1 574.6 28.101 L 556.6 28.101 Q 556.5 23.001 553.85 20.201 A 8.478 8.478 0 0 0 549.975 17.902 Q 548.606 17.503 546.958 17.422 A 17.468 17.468 0 0 0 546.1 17.401 A 11.96 11.96 0 0 0 542.381 17.956 A 9.949 9.949 0 0 0 538.5 20.301 A 9.449 9.449 0 0 0 535.922 24.861 Q 535.54 26.357 535.504 28.131 A 18.285 18.285 0 0 0 535.5 28.501 L 535.5 44.801 Q 535.5 50.101 538.65 53.051 A 10.827 10.827 0 0 0 545.972 55.994 A 14.035 14.035 0 0 0 546.4 56.001 Q 554.773 56.001 556.469 49.133 A 16.438 16.438 0 0 0 556.9 45.201 Z" id="7" vector-effect="non-scaling-stroke"/><path d="M 650.1 1.901 L 621.1 30.901 L 650.1 71.501 L 594.1 71.501 L 594.1 1.901 L 650.1 1.901 Z M 643 67.801 L 618.5 33.501 L 597.8 54.201 L 597.8 67.801 L 643 67.801 Z" id="8" vector-effect="non-scaling-stroke"/><path d="M 669.8 1.901 L 699 1.901 A 35.502 35.502 0 0 1 703.041 2.116 Q 705.073 2.35 706.763 2.836 A 15.187 15.187 0 0 1 709.5 3.901 A 18.458 18.458 0 0 1 714.587 7.659 A 16.93 16.93 0 0 1 716.75 10.501 A 17.688 17.688 0 0 1 719.298 19.577 A 21.021 21.021 0 0 1 719.3 19.901 Q 719.3 24.801 716.7 28.951 Q 714.1 33.101 709.6 35.501 Q 715 37.401 718.7 42.101 Q 722.4 46.801 722.4 52.701 Q 722.4 57.901 719.75 62.251 Q 717.1 66.601 712.7 69.101 A 17.914 17.914 0 0 1 709.119 70.563 A 21.024 21.024 0 0 1 707.8 70.901 Q 705.1 71.501 700.6 71.501 L 669.8 71.501 L 669.8 1.901 Z" id="9" vector-effect="non-scaling-stroke"/><path d="M 768.1 0.401 L 800.9 71.501 L 735.3 71.501 L 768.1 0.401 Z M 768.1 9.201 L 741.1 67.801 L 795.1 67.801 L 768.1 9.201 Z" id="10" vector-effect="non-scaling-stroke"/><path d="M 871.2 71.401 L 815 71.401 L 815 1.801 L 818.9 1.801 L 867.5 49.101 L 867.5 1.801 L 871.2 1.801 L 871.2 71.401 Z" id="11" vector-effect="non-scaling-stroke"/><path d="M 946.1 1.901 L 917.1 30.901 L 946.1 71.501 L 890.1 71.501 L 890.1 1.901 L 946.1 1.901 Z M 939 67.801 L 914.5 33.501 L 893.8 54.201 L 893.8 67.801 L 939 67.801 Z" id="12" vector-effect="non-scaling-stroke"/></g></svg>